<?xml version="1.0" encoding="UTF-8"?>
<svg xmlns="http://www.w3.org/2000/svg" xmlns:xlink="http://www.w3.org/1999/xlink" width="64pt" height="64pt" viewBox="0 0 64 64" version="1.1">
<defs>
<radialGradient id="radial0" gradientUnits="userSpaceOnUse" cx="86" cy="88.6875" fx="86" fy="88.6875" r="79.56613" gradientTransform="matrix(0.372093,0,0,0.372093,0,0)">
<stop offset="0" style="stop-color:rgb(77.254902%,94.509804%,100%);stop-opacity:1;"/>
<stop offset="0.35" style="stop-color:rgb(80.392157%,95.294118%,100%);stop-opacity:1;"/>
<stop offset="0.907" style="stop-color:rgb(89.411765%,98.039216%,100%);stop-opacity:1;"/>
<stop offset="1" style="stop-color:rgb(91.372549%,98.431373%,100%);stop-opacity:1;"/>
</radialGradient>
<linearGradient id="linear0" gradientUnits="userSpaceOnUse" x1="87.34375" y1="172.27413" x2="87.34375" y2="59.39913" gradientTransform="matrix(0.372093,0,0,0.372093,0,0)">
<stop offset="0" style="stop-color:rgb(8.235294%,36.078431%,87.058824%);stop-opacity:1;"/>
<stop offset="0.278" style="stop-color:rgb(12.156863%,49.803922%,89.803922%);stop-opacity:1;"/>
<stop offset="0.569" style="stop-color:rgb(15.294118%,61.176471%,92.156863%);stop-opacity:1;"/>
<stop offset="0.82" style="stop-color:rgb(17.254902%,68.627451%,93.72549%);stop-opacity:1;"/>
<stop offset="1" style="stop-color:rgb(18.039216%,70.980392%,94.117647%);stop-opacity:1;"/>
</linearGradient>
</defs>
<g id="surface164970">
<path style=" stroke:none;fill-rule:nonzero;fill:url(#radial0);" d="M 10.5 60 L 51.5 60 C 53.984375 60 56 57.984375 56 55.5 C 56 53.015625 53.984375 51 51.5 51 L 51.105469 51 C 50.109375 51 49.1875 50.320312 49.027344 49.335938 C 48.824219 48.082031 49.785156 47 51 47 L 56.289062 47 C 58.636719 47 60.742188 45.296875 60.976562 42.960938 C 61.246094 40.28125 59.128906 38 56.5 38 L 53.105469 38 C 52.109375 38 51.1875 37.320312 51.027344 36.335938 C 50.824219 35.082031 51.785156 34 53 34 L 58.242188 34 C 61.109375 34 63.683594 31.917969 63.972656 29.0625 C 64.304688 25.789062 61.710938 23 58.5 23 L 46.171875 23 C 44.546875 23 43.089844 21.785156 43.003906 20.160156 C 42.914062 18.429688 44.289062 17 46 17 L 48.242188 17 C 51.109375 17 53.683594 14.917969 53.972656 12.0625 C 54.304688 8.789062 51.710938 6 48.5 6 L 10.5 6 C 7.460938 6 5 8.460938 5 11.5 C 5 14.539062 7.460938 17 10.5 17 L 14 17 C 15.105469 17 16 17.894531 16 19 C 16 20.105469 15.105469 21 14 21 L 4.710938 21 C 2.363281 21 0.257812 22.703125 0.0234375 25.039062 C -0.246094 27.71875 1.871094 30 4.5 30 L 12.828125 30 C 14.453125 30 15.910156 31.214844 15.996094 32.839844 C 16.085938 34.570312 14.710938 36 13 36 L 7.710938 36 C 5.363281 36 3.257812 37.703125 3.023438 40.039062 C 2.753906 42.71875 4.871094 45 7.5 45 L 13.894531 45 C 14.890625 45 15.8125 45.679688 15.972656 46.664062 C 16.175781 47.917969 15.214844 49 14 49 L 10.5 49 C 7.460938 49 5 51.460938 5 54.5 C 5 57.539062 7.460938 60 10.5 60 Z M 10.5 60 "/>
<path style=" stroke:none;fill-rule:nonzero;fill:url(#linear0);" d="M 57.667969 19.058594 C 56.226562 19.550781 54.671875 19.828125 53.03125 20.015625 C 54.648438 19.210938 55.765625 18.023438 56.8125 16.574219 C 57.410156 15.742188 56.480469 14.65625 55.5625 15.105469 C 53.921875 15.898438 52.339844 16.484375 50.347656 16.824219 C 48.398438 15.074219 45.828125 14 43 14 C 38.890625 14 35.308594 16.25 33.429688 19.578125 C 32.519531 21.179688 32 23.03125 32 25 C 32 25.675781 32.082031 26.332031 32.199219 26.976562 C 23.359375 26.710938 15.949219 22.148438 11.734375 16.40625 C 11.269531 15.769531 10.289062 15.90625 10 16.640625 C 9.554688 17.773438 9 19 9 21 C 9 21.121094 9 21.230469 9.011719 21.339844 C 9.050781 22.640625 9.339844 23.878906 9.839844 25 C 10.78125 27.171875 12.480469 28.941406 14.609375 29.980469 C 14.410156 29.988281 14.210938 30 14 30 C 12 30 11.34375 29.316406 10.257812 29.03125 C 9.574219 28.855469 8.90625 29.425781 9.011719 30.121094 C 9.339844 32.34375 10.492188 34.683594 12.039062 36.171875 C 13.699219 37.789062 15.917969 38.828125 18.390625 38.980469 C 17.070312 39.628906 15.578125 40 14 40 L 13 40 C 12.242188 40 11.773438 40.800781 12.113281 41.472656 C 13.789062 44.789062 17.675781 47.003906 21.835938 46.988281 C 17.824219 49.519531 13.089844 51 8 51 L 7 51 C 6.449219 51 6 51.449219 6 52 C 6 52.457031 6.3125 52.828125 6.734375 52.945312 L 6.730469 52.964844 C 6.730469 52.964844 14.261719 56 23 56 C 39.929688 56 53.691406 42.429688 53.988281 25.570312 C 54 25.378906 54 25.191406 54 25 C 54 24.808594 54 24.621094 53.988281 24.429688 C 53.976562 24.15625 53.941406 23.886719 53.90625 23.613281 C 55.757812 23.027344 57.40625 22.058594 58.71875 20.6875 C 59.441406 19.9375 58.65625 18.71875 57.667969 19.058594 Z M 57.667969 19.058594 "/>
</g>
</svg>
